<svg xmlns="http://www.w3.org/2000/svg" xmlns:xlink="http://www.w3.org/1999/xlink" width="500"
    zoomAndPan="magnify" viewBox="0 0 375 374.999991" height="500"
    preserveAspectRatio="xMidYMid meet" version="1.0">
    <defs>
        <g />
        <clipPath id="cc82503582">
            <path d="M 123.867188 108 L 214 108 L 214 185 L 123.867188 185 Z M 123.867188 108 "
                clip-rule="nonzero" />
        </clipPath>
        <clipPath id="9b4a9c870b">
            <path d="M 161 109 L 251.363281 109 L 251.363281 185 L 161 185 Z M 161 109 "
                clip-rule="nonzero" />
        </clipPath>
        <clipPath id="7409fae8d6">
            <path d="M 154 82.796875 L 222 82.796875 L 222 128 L 154 128 Z M 154 82.796875 "
                clip-rule="nonzero" />
        </clipPath>
    </defs>
    <rect x="-37.5" width="450" fill="#ffffff" y="-37.499999" height="449.999989" fill-opacity="1" />
    <rect x="-37.5" width="450" fill="#ffffff" y="-37.499999" height="449.999989" fill-opacity="1" />
    <g fill="#241800" fill-opacity="1">
        <g transform="translate(82.871975, 262.561529)">
            <g>
                <path
                    d="M 21.9375 -5.875 L 23.40625 -0.953125 C 22.894531 -0.554688 22.210938 -0.234375 21.359375 0.015625 C 20.503906 0.265625 19.640625 0.390625 18.765625 0.390625 C 17.078125 0.390625 15.679688 0.0820312 14.578125 -0.53125 C 13.472656 -1.15625 12.578125 -2.035156 11.890625 -3.171875 L 9.78125 -6.71875 C 9.53125 -7.144531 9.285156 -7.460938 9.046875 -7.671875 C 8.816406 -7.890625 8.53125 -8.03125 8.1875 -8.09375 L 8.1875 0 L 1.921875 0 L 1.921875 -22.703125 L 9.59375 -22.703125 C 13.082031 -22.703125 15.664062 -22.039062 17.34375 -20.71875 C 19.019531 -19.394531 19.859375 -17.5625 19.859375 -15.21875 C 19.859375 -13.550781 19.375 -12.171875 18.40625 -11.078125 C 17.445312 -9.984375 16.179688 -9.210938 14.609375 -8.765625 C 15.421875 -8.503906 16.0625 -8.023438 16.53125 -7.328125 L 17.109375 -6.453125 C 17.640625 -5.617188 18.457031 -5.203125 19.5625 -5.203125 C 19.96875 -5.203125 20.367188 -5.25 20.765625 -5.34375 C 21.160156 -5.445312 21.550781 -5.625 21.9375 -5.875 Z M 9.53125 -17.546875 L 8.1875 -17.546875 L 8.1875 -13.046875 L 9.8125 -13.046875 C 11.195312 -13.046875 12.160156 -13.226562 12.703125 -13.59375 C 13.242188 -13.96875 13.515625 -14.550781 13.515625 -15.34375 C 13.515625 -16.195312 13.144531 -16.773438 12.40625 -17.078125 C 11.675781 -17.390625 10.71875 -17.546875 9.53125 -17.546875 Z M 9.53125 -17.546875 " />
            </g>
        </g>
    </g>
    <g fill="#241800" fill-opacity="1">
        <g transform="translate(123.978177, 262.561529)">
            <g>
                <path
                    d="M 18.484375 -17.234375 L 8.21875 -17.234375 L 8.21875 -14.125 L 17.640625 -14.125 L 17.640625 -8.65625 L 8.21875 -8.65625 L 8.21875 -5.46875 L 18.734375 -5.46875 L 18.34375 0 L 1.921875 0 L 1.921875 -22.703125 L 18.484375 -22.703125 Z M 18.484375 -17.234375 " />
            </g>
        </g>
    </g>
    <g fill="#241800" fill-opacity="1">
        <g transform="translate(162.176083, 262.561529)">
            <g>
                <path
                    d="M 22.765625 -4.5 C 21.785156 -2.945312 20.441406 -1.75 18.734375 -0.90625 C 17.023438 -0.0625 15.128906 0.359375 13.046875 0.359375 C 10.484375 0.359375 8.289062 -0.0859375 6.46875 -0.984375 C 4.644531 -1.878906 3.253906 -3.171875 2.296875 -4.859375 C 1.335938 -6.546875 0.859375 -8.550781 0.859375 -10.875 C 0.859375 -13.320312 1.382812 -15.453125 2.4375 -17.265625 C 3.5 -19.078125 4.976562 -20.488281 6.875 -21.5 C 8.769531 -22.507812 10.972656 -23.015625 13.484375 -23.015625 C 15.703125 -23.015625 17.566406 -22.625 19.078125 -21.84375 C 20.597656 -21.070312 21.835938 -19.875 22.796875 -18.25 L 17.96875 -14.828125 C 17.5625 -15.617188 16.929688 -16.242188 16.078125 -16.703125 C 15.222656 -17.160156 14.285156 -17.390625 13.265625 -17.390625 C 11.390625 -17.410156 9.9375 -16.828125 8.90625 -15.640625 C 7.875 -14.460938 7.359375 -12.925781 7.359375 -11.03125 C 7.359375 -9.21875 7.832031 -7.804688 8.78125 -6.796875 C 9.726562 -5.785156 11.160156 -5.28125 13.078125 -5.28125 C 15.296875 -5.28125 16.957031 -6.238281 18.0625 -8.15625 Z M 22.765625 -4.5 " />
            </g>
        </g>
    </g>
    <g fill="#241800" fill-opacity="1">
        <g transform="translate(203.505994, 262.561529)">
            <g>
                <path
                    d="M 1.921875 0 L 1.921875 -22.703125 L 8.3125 -22.703125 L 8.3125 0 Z M 1.921875 0 " />
            </g>
        </g>
    </g>
    <g fill="#241800" fill-opacity="1">
        <g transform="translate(232.915126, 262.561529)">
            <g>
                <path
                    d="M 8.1875 0 L 1.921875 0 L 1.921875 -22.703125 L 10.515625 -22.703125 C 14.035156 -22.703125 16.628906 -22.066406 18.296875 -20.796875 C 19.972656 -19.523438 20.8125 -17.675781 20.8125 -15.25 C 20.8125 -13.625 20.375 -12.222656 19.5 -11.046875 C 18.625 -9.878906 17.382812 -8.984375 15.78125 -8.359375 C 14.1875 -7.734375 12.28125 -7.421875 10.0625 -7.421875 L 8.1875 -7.421875 Z M 10.703125 -17.546875 L 8.1875 -17.546875 L 8.1875 -12.59375 L 10.390625 -12.59375 C 11.710938 -12.59375 12.71875 -12.796875 13.40625 -13.203125 C 14.101562 -13.609375 14.453125 -14.269531 14.453125 -15.1875 C 14.453125 -16 14.148438 -16.59375 13.546875 -16.96875 C 12.953125 -17.351562 12.003906 -17.546875 10.703125 -17.546875 Z M 10.703125 -17.546875 " />
            </g>
        </g>
    </g>
    <g fill="#241800" fill-opacity="1">
        <g transform="translate(273.094514, 262.561529)">
            <g>
                <path
                    d="M 18.484375 -17.234375 L 8.21875 -17.234375 L 8.21875 -14.125 L 17.640625 -14.125 L 17.640625 -8.65625 L 8.21875 -8.65625 L 8.21875 -5.46875 L 18.734375 -5.46875 L 18.34375 0 L 1.921875 0 L 1.921875 -22.703125 L 18.484375 -22.703125 Z M 18.484375 -17.234375 " />
            </g>
        </g>
    </g>
    <g fill="#a2751d" fill-opacity="1">
        <g transform="translate(114.627257, 283.681153)">
            <g>
                <path
                    d="M 2.859375 0.09375 C 2.046875 0.09375 1.410156 -0.0859375 0.953125 -0.453125 C 0.503906 -0.816406 0.25 -1.351562 0.1875 -2.0625 L 1.375 -2.234375 C 1.488281 -1.398438 2.003906 -0.984375 2.921875 -0.984375 C 3.316406 -0.984375 3.625 -1.0625 3.84375 -1.21875 C 4.070312 -1.382812 4.1875 -1.609375 4.1875 -1.890625 C 4.1875 -2.148438 4.070312 -2.347656 3.84375 -2.484375 C 3.625 -2.617188 3.269531 -2.742188 2.78125 -2.859375 C 2.332031 -2.960938 1.941406 -3.09375 1.609375 -3.25 C 1.285156 -3.40625 1.035156 -3.613281 0.859375 -3.875 C 0.691406 -4.132812 0.609375 -4.476562 0.609375 -4.90625 C 0.609375 -5.3125 0.710938 -5.671875 0.921875 -5.984375 C 1.140625 -6.304688 1.429688 -6.554688 1.796875 -6.734375 C 2.171875 -6.921875 2.601562 -7.015625 3.09375 -7.015625 C 3.738281 -7.015625 4.265625 -6.84375 4.671875 -6.5 C 5.078125 -6.164062 5.316406 -5.707031 5.390625 -5.125 L 4.28125 -4.9375 C 4.144531 -5.613281 3.726562 -5.953125 3.03125 -5.953125 C 2.695312 -5.953125 2.421875 -5.863281 2.203125 -5.6875 C 1.992188 -5.507812 1.890625 -5.273438 1.890625 -4.984375 C 1.890625 -4.703125 1.992188 -4.484375 2.203125 -4.328125 C 2.410156 -4.179688 2.765625 -4.046875 3.265625 -3.921875 C 3.710938 -3.816406 4.097656 -3.695312 4.421875 -3.5625 C 4.742188 -3.425781 4.992188 -3.234375 5.171875 -2.984375 C 5.359375 -2.734375 5.453125 -2.394531 5.453125 -1.96875 C 5.453125 -1.5625 5.34375 -1.203125 5.125 -0.890625 C 4.90625 -0.585938 4.601562 -0.347656 4.21875 -0.171875 C 3.832031 0.00390625 3.378906 0.09375 2.859375 0.09375 Z M 2.859375 0.09375 " />
            </g>
        </g>
    </g>
    <g fill="#a2751d" fill-opacity="1">
        <g transform="translate(128.129402, 283.681153)">
            <g>
                <path
                    d="M 8.359375 -6.921875 L 9.578125 -6.921875 L 7.5625 0 L 6.125 0 L 4.859375 -5.28125 L 3.359375 0 L 1.90625 0 L 0.1875 -6.921875 L 1.46875 -6.921875 L 2.71875 -1.625 L 4.203125 -6.921875 L 5.671875 -6.921875 L 6.90625 -1.65625 Z M 8.359375 -6.921875 " />
            </g>
        </g>
    </g>
    <g fill="#a2751d" fill-opacity="1">
        <g transform="translate(145.507362, 283.681153)">
            <g>
                <path
                    d="M 5.171875 -5.828125 L 1.953125 -5.828125 L 1.953125 -4.046875 L 5.015625 -4.046875 L 5.015625 -2.953125 L 1.953125 -2.953125 L 1.953125 -1.09375 L 5.28125 -1.09375 L 5.203125 0 L 0.71875 0 L 0.71875 -6.921875 L 5.171875 -6.921875 Z M 5.171875 -5.828125 " />
            </g>
        </g>
    </g>
    <g fill="#a2751d" fill-opacity="1">
        <g transform="translate(158.805013, 283.681153)">
            <g>
                <path
                    d="M 5.171875 -5.828125 L 1.953125 -5.828125 L 1.953125 -4.046875 L 5.015625 -4.046875 L 5.015625 -2.953125 L 1.953125 -2.953125 L 1.953125 -1.09375 L 5.28125 -1.09375 L 5.203125 0 L 0.71875 0 L 0.71875 -6.921875 L 5.171875 -6.921875 Z M 5.171875 -5.828125 " />
            </g>
        </g>
    </g>
    <g fill="#a2751d" fill-opacity="1">
        <g transform="translate(172.102664, 283.681153)">
            <g>
                <path
                    d="M 5.734375 -6.921875 L 5.578125 -5.8125 L 3.4375 -5.8125 L 3.4375 0 L 2.171875 0 L 2.171875 -5.8125 L -0.0625 -5.8125 L -0.0625 -6.921875 Z M 5.734375 -6.921875 " />
            </g>
        </g>
    </g>
    <g fill="#a2751d" fill-opacity="1">
        <g transform="translate(185.487953, 283.681153)">
            <g />
        </g>
    </g>
    <g fill="#a2751d" fill-opacity="1">
        <g transform="translate(195.6499, 283.681153)">
            <g>
                <path
                    d="M 5.734375 -6.921875 L 5.578125 -5.8125 L 3.4375 -5.8125 L 3.4375 0 L 2.171875 0 L 2.171875 -5.8125 L -0.0625 -5.8125 L -0.0625 -6.921875 Z M 5.734375 -6.921875 " />
            </g>
        </g>
    </g>
    <g fill="#a2751d" fill-opacity="1">
        <g transform="translate(209.03519, 283.681153)">
            <g>
                <path
                    d="M 3.796875 0.09375 C 3.085938 0.09375 2.484375 -0.0390625 1.984375 -0.3125 C 1.484375 -0.582031 1.097656 -0.972656 0.828125 -1.484375 C 0.566406 -1.992188 0.4375 -2.609375 0.4375 -3.328125 C 0.4375 -4.054688 0.578125 -4.695312 0.859375 -5.25 C 1.148438 -5.800781 1.554688 -6.234375 2.078125 -6.546875 C 2.597656 -6.859375 3.21875 -7.015625 3.9375 -7.015625 C 4.570312 -7.015625 5.128906 -6.867188 5.609375 -6.578125 C 6.097656 -6.296875 6.472656 -5.898438 6.734375 -5.390625 C 7.003906 -4.878906 7.140625 -4.28125 7.140625 -3.59375 C 7.140625 -2.84375 6.992188 -2.191406 6.703125 -1.640625 C 6.410156 -1.097656 6.015625 -0.671875 5.515625 -0.359375 C 5.015625 -0.0546875 4.441406 0.09375 3.796875 0.09375 Z M 3.75 -1.046875 C 4.164062 -1.046875 4.53125 -1.144531 4.84375 -1.34375 C 5.15625 -1.550781 5.398438 -1.84375 5.578125 -2.21875 C 5.753906 -2.59375 5.84375 -3.050781 5.84375 -3.59375 C 5.84375 -4.289062 5.664062 -4.847656 5.3125 -5.265625 C 4.96875 -5.679688 4.5 -5.890625 3.90625 -5.890625 C 3.488281 -5.890625 3.113281 -5.78125 2.78125 -5.5625 C 2.457031 -5.351562 2.195312 -5.054688 2 -4.671875 C 1.8125 -4.296875 1.71875 -3.859375 1.71875 -3.359375 C 1.71875 -2.617188 1.898438 -2.046875 2.265625 -1.640625 C 2.628906 -1.242188 3.125 -1.046875 3.75 -1.046875 Z M 3.75 -1.046875 " />
            </g>
        </g>
    </g>
    <g fill="#a2751d" fill-opacity="1">
        <g transform="translate(224.397331, 283.681153)">
            <g>
                <path
                    d="M 3.796875 0.09375 C 3.085938 0.09375 2.484375 -0.0390625 1.984375 -0.3125 C 1.484375 -0.582031 1.097656 -0.972656 0.828125 -1.484375 C 0.566406 -1.992188 0.4375 -2.609375 0.4375 -3.328125 C 0.4375 -4.054688 0.578125 -4.695312 0.859375 -5.25 C 1.148438 -5.800781 1.554688 -6.234375 2.078125 -6.546875 C 2.597656 -6.859375 3.21875 -7.015625 3.9375 -7.015625 C 4.570312 -7.015625 5.128906 -6.867188 5.609375 -6.578125 C 6.097656 -6.296875 6.472656 -5.898438 6.734375 -5.390625 C 7.003906 -4.878906 7.140625 -4.28125 7.140625 -3.59375 C 7.140625 -2.84375 6.992188 -2.191406 6.703125 -1.640625 C 6.410156 -1.097656 6.015625 -0.671875 5.515625 -0.359375 C 5.015625 -0.0546875 4.441406 0.09375 3.796875 0.09375 Z M 3.75 -1.046875 C 4.164062 -1.046875 4.53125 -1.144531 4.84375 -1.34375 C 5.15625 -1.550781 5.398438 -1.84375 5.578125 -2.21875 C 5.753906 -2.59375 5.84375 -3.050781 5.84375 -3.59375 C 5.84375 -4.289062 5.664062 -4.847656 5.3125 -5.265625 C 4.96875 -5.679688 4.5 -5.890625 3.90625 -5.890625 C 3.488281 -5.890625 3.113281 -5.78125 2.78125 -5.5625 C 2.457031 -5.351562 2.195312 -5.054688 2 -4.671875 C 1.8125 -4.296875 1.71875 -3.859375 1.71875 -3.359375 C 1.71875 -2.617188 1.898438 -2.046875 2.265625 -1.640625 C 2.628906 -1.242188 3.125 -1.046875 3.75 -1.046875 Z M 3.75 -1.046875 " />
            </g>
        </g>
    </g>
    <g fill="#a2751d" fill-opacity="1">
        <g transform="translate(239.759467, 283.681153)">
            <g>
                <path
                    d="M 5.734375 -6.921875 L 5.578125 -5.8125 L 3.4375 -5.8125 L 3.4375 0 L 2.171875 0 L 2.171875 -5.8125 L -0.0625 -5.8125 L -0.0625 -6.921875 Z M 5.734375 -6.921875 " />
            </g>
        </g>
    </g>
    <g fill="#a2751d" fill-opacity="1">
        <g transform="translate(253.144751, 283.681153)">
            <g>
                <path
                    d="M 0.71875 0 L 0.71875 -6.921875 L 1.984375 -6.921875 L 1.984375 -4.0625 L 5.25 -4.0625 L 5.25 -6.921875 L 6.53125 -6.921875 L 6.53125 0 L 5.25 0 L 5.25 -2.9375 L 1.984375 -2.9375 L 1.984375 0 Z M 0.71875 0 " />
            </g>
        </g>
    </g>
    <g clip-path="url(#cc82503582)">
        <path fill="#a2751d"
            d="M 168.953125 184.410156 C 156.972656 184.410156 145.695312 180.449219 137.199219 173.261719 C 133.03125 169.738281 129.761719 165.625 127.460938 161.039062 C 125.078125 156.261719 123.863281 151.179688 123.863281 145.945312 C 123.863281 144.714844 123.9375 143.460938 124.070312 142.226562 C 124.949219 134.386719 128.582031 127.070312 134.5625 121.050781 C 140.421875 115.164062 148.113281 110.960938 156.796875 108.894531 L 157.757812 112.941406 C 141.648438 116.773438 129.769531 128.734375 128.199219 142.695312 C 128.078125 143.769531 128.011719 144.863281 128.011719 145.945312 C 128.011719 164.859375 146.375 180.25 168.945312 180.25 C 175.167969 180.25 181.148438 179.109375 186.707031 176.859375 C 189.539062 175.710938 192.222656 174.289062 194.679688 172.617188 C 202.332031 167.421875 207.5 160.113281 209.226562 152.050781 L 213.292969 152.917969 C 211.339844 162.039062 205.554688 170.253906 197.015625 176.054688 C 194.3125 177.886719 191.378906 179.457031 188.269531 180.710938 C 182.222656 183.167969 175.71875 184.410156 168.953125 184.410156 Z M 168.953125 184.410156 "
            fill-opacity="1" fill-rule="nonzero" />
    </g>
    <g clip-path="url(#9b4a9c870b)">
        <path fill="#a2751d"
            d="M 206.050781 184.410156 C 199.285156 184.410156 192.78125 183.167969 186.726562 180.710938 C 183.625 179.457031 180.679688 177.886719 177.980469 176.054688 C 169.4375 170.261719 163.65625 162.039062 161.703125 152.917969 L 165.765625 152.050781 C 167.496094 160.113281 172.664062 167.421875 180.316406 172.617188 C 182.773438 174.289062 185.457031 175.710938 188.285156 176.859375 C 193.847656 179.109375 199.828125 180.25 206.050781 180.25 C 228.617188 180.25 246.980469 164.859375 246.980469 145.945312 C 246.980469 144.851562 246.914062 143.761719 246.804688 142.695312 C 245.300781 129.257812 234.449219 117.773438 219.160156 113.4375 L 220.292969 109.4375 C 237.207031 114.230469 249.234375 127.097656 250.925781 142.226562 C 251.066406 143.441406 251.128906 144.695312 251.128906 145.945312 C 251.128906 151.179688 249.914062 156.261719 247.53125 161.039062 C 245.242188 165.625 241.964844 169.738281 237.796875 173.261719 C 229.300781 180.449219 218.03125 184.410156 206.050781 184.410156 Z M 206.050781 184.410156 "
            fill-opacity="1" fill-rule="nonzero" />
    </g>
    <path fill="#a2751d"
        d="M 135.238281 150.75 C 135.648438 153.066406 136.40625 155.320312 137.527344 157.367188 C 138.070312 158.402344 138.722656 159.367188 139.394531 160.308594 C 139.761719 160.765625 140.097656 161.234375 140.488281 161.664062 C 140.675781 161.878906 140.863281 162.105469 141.058594 162.320312 L 141.65625 162.945312 L 141.957031 163.253906 L 142.273438 163.550781 L 142.898438 164.148438 C 143.113281 164.347656 143.339844 164.535156 143.554688 164.71875 C 143.769531 164.90625 143.984375 165.101562 144.21875 165.28125 C 144.675781 165.636719 145.113281 166 145.589844 166.328125 C 145.824219 166.496094 146.058594 166.664062 146.292969 166.832031 L 147.011719 167.308594 L 147.375 167.542969 C 147.496094 167.617188 147.617188 167.691406 147.75 167.765625 L 148.488281 168.207031 C 148.730469 168.355469 148.992188 168.484375 149.246094 168.625 L 150 169.039062 L 150.777344 169.421875 C 151.039062 169.542969 151.292969 169.683594 151.554688 169.792969 L 152.339844 170.140625 C 152.46875 170.195312 152.597656 170.261719 152.730469 170.316406 L 153.132812 170.476562 C 157.394531 172.207031 161.917969 173.195312 166.46875 173.523438 C 171.019531 173.851562 175.605469 173.523438 180.007812 172.550781 L 180.746094 176.644531 C 175.867188 177.34375 170.941406 177.316406 166.128906 176.625 C 161.316406 175.925781 156.617188 174.511719 152.28125 172.375 L 151.871094 172.175781 C 151.738281 172.113281 151.601562 172.039062 151.46875 171.960938 L 150.675781 171.53125 C 150.402344 171.390625 150.152344 171.234375 149.890625 171.085938 L 149.105469 170.625 L 148.339844 170.140625 C 148.085938 169.972656 147.824219 169.824219 147.582031 169.644531 L 146.84375 169.121094 C 146.722656 169.039062 146.589844 168.953125 146.480469 168.859375 L 146.125 168.589844 L 145.402344 168.039062 C 145.171875 167.851562 144.9375 167.65625 144.710938 167.457031 C 144.246094 167.085938 143.804688 166.664062 143.359375 166.261719 C 143.132812 166.066406 142.929688 165.839844 142.710938 165.636719 C 142.496094 165.421875 142.28125 165.214844 142.078125 165 L 141.46875 164.335938 L 141.171875 164 L 140.882812 163.65625 L 140.3125 162.964844 C 140.125 162.730469 139.957031 162.488281 139.769531 162.242188 C 139.40625 161.765625 139.085938 161.261719 138.75 160.765625 C 138.125 159.75 137.527344 158.710938 137.058594 157.617188 C 136.070312 155.421875 135.46875 153.09375 135.238281 150.75 Z M 135.238281 150.75 "
        fill-opacity="1" fill-rule="nonzero" />
    <path fill="#a2751d"
        d="M 194.988281 172.550781 C 199.386719 173.523438 203.976562 173.839844 208.527344 173.523438 C 213.078125 173.195312 217.601562 172.207031 221.863281 170.476562 L 222.265625 170.316406 C 222.394531 170.261719 222.527344 170.207031 222.65625 170.140625 L 223.441406 169.792969 C 223.703125 169.683594 223.964844 169.550781 224.21875 169.421875 L 224.992188 169.039062 L 225.75 168.625 C 226.003906 168.484375 226.265625 168.355469 226.507812 168.207031 L 227.246094 167.765625 C 227.367188 167.691406 227.496094 167.617188 227.617188 167.542969 L 227.984375 167.308594 L 228.703125 166.832031 C 228.9375 166.671875 229.171875 166.496094 229.402344 166.328125 C 229.878906 166 230.328125 165.636719 230.777344 165.28125 C 231.011719 165.101562 231.226562 164.917969 231.441406 164.71875 C 231.65625 164.535156 231.878906 164.347656 232.09375 164.148438 L 232.722656 163.550781 L 233.039062 163.253906 L 233.335938 162.945312 L 233.9375 162.320312 C 234.132812 162.105469 234.320312 161.878906 234.507812 161.664062 C 234.898438 161.234375 235.234375 160.765625 235.597656 160.308594 C 236.28125 159.367188 236.933594 158.402344 237.46875 157.367188 C 238.589844 155.320312 239.347656 153.078125 239.757812 150.75 C 239.523438 153.09375 238.925781 155.421875 237.933594 157.589844 C 237.46875 158.683594 236.871094 159.722656 236.242188 160.738281 C 235.90625 161.234375 235.589844 161.75 235.226562 162.214844 C 235.046875 162.457031 234.871094 162.703125 234.683594 162.933594 L 234.113281 163.628906 L 233.824219 163.972656 L 233.523438 164.308594 L 232.917969 164.972656 C 232.710938 165.1875 232.496094 165.402344 232.28125 165.609375 C 232.066406 165.824219 231.863281 166.039062 231.636719 166.234375 C 231.1875 166.636719 230.757812 167.054688 230.28125 167.429688 C 230.046875 167.625 229.824219 167.824219 229.589844 168.007812 L 228.871094 168.5625 L 228.515625 168.832031 C 228.394531 168.925781 228.273438 169.007812 228.152344 169.09375 L 227.414062 169.617188 C 227.171875 169.792969 226.910156 169.945312 226.65625 170.113281 L 225.890625 170.597656 L 225.105469 171.054688 C 224.84375 171.207031 224.589844 171.363281 224.320312 171.503906 L 223.527344 171.933594 C 223.394531 172.007812 223.265625 172.074219 223.125 172.148438 L 222.710938 172.34375 C 218.375 174.484375 213.675781 175.898438 208.863281 176.597656 C 204.050781 177.296875 199.117188 177.316406 194.25 176.617188 Z M 194.988281 172.550781 "
        fill-opacity="1" fill-rule="nonzero" />
    <g clip-path="url(#7409fae8d6)">
        <path fill="#a2751d"
            d="M 218.265625 127.679688 C 218.21875 126.988281 218.226562 126.332031 218.238281 125.6875 C 218.246094 125.042969 218.265625 124.40625 218.292969 123.789062 C 218.347656 122.546875 218.40625 121.324219 218.46875 120.117188 C 218.5 119.511719 218.535156 118.914062 218.554688 118.304688 C 218.574219 117.699219 218.582031 117.101562 218.554688 116.492188 C 218.527344 115.894531 218.515625 115.285156 218.453125 114.6875 L 218.367188 113.792969 C 218.332031 113.492188 218.285156 113.195312 218.238281 112.894531 C 218.078125 111.699219 217.808594 110.53125 217.507812 109.371094 C 217.421875 109.082031 217.332031 108.800781 217.246094 108.511719 C 217.152344 108.222656 217.078125 107.933594 216.976562 107.652344 C 216.769531 107.089844 216.582031 106.519531 216.339844 105.96875 C 215.433594 103.753906 214.285156 101.644531 212.871094 99.71875 L 212.339844 99 L 211.78125 98.308594 C 211.414062 97.839844 211.003906 97.402344 210.613281 96.960938 L 210.460938 96.792969 L 210.304688 96.632812 L 209.984375 96.316406 C 209.769531 96.113281 209.574219 95.886719 209.359375 95.679688 L 208.707031 95.074219 C 208.59375 94.972656 208.492188 94.867188 208.378906 94.773438 L 208.042969 94.484375 C 206.238281 92.945312 204.257812 91.597656 202.136719 90.542969 C 200.015625 89.484375 197.800781 88.636719 195.492188 88.101562 L 194.621094 87.90625 L 194.40625 87.859375 L 194.191406 87.824219 L 193.753906 87.746094 C 193.464844 87.703125 193.175781 87.644531 192.882812 87.597656 L 192.007812 87.496094 L 191.566406 87.441406 C 191.417969 87.421875 191.269531 87.421875 191.128906 87.402344 L 190.238281 87.347656 C 189.949219 87.316406 189.652344 87.328125 189.351562 87.316406 L 188.464844 87.300781 C 186.101562 87.308594 183.746094 87.597656 181.457031 88.160156 C 179.167969 88.710938 176.953125 89.5625 174.847656 90.636719 L 174.457031 90.832031 C 174.324219 90.898438 174.203125 90.980469 174.074219 91.046875 L 173.308594 91.484375 C 173.054688 91.636719 172.8125 91.804688 172.558594 91.953125 L 172.1875 92.1875 L 172 92.308594 L 171.820312 92.4375 C 171.34375 92.785156 170.851562 93.113281 170.390625 93.484375 L 169.691406 94.027344 L 169 94.625 C 167.207031 96.15625 165.605469 97.933594 164.234375 99.859375 C 162.851562 101.773438 161.71875 103.875 160.824219 106.074219 C 160.589844 106.613281 160.402344 107.183594 160.207031 107.734375 C 160.101562 108.015625 160.027344 108.304688 159.945312 108.585938 C 159.859375 108.867188 159.765625 109.15625 159.691406 109.4375 C 159.402344 110.585938 159.140625 111.746094 158.980469 112.933594 C 158.945312 113.230469 158.898438 113.519531 158.859375 113.820312 L 158.785156 114.707031 C 158.71875 115.296875 158.71875 115.894531 158.683594 116.492188 C 158.625 117.6875 158.617188 118.882812 158.609375 120.089844 C 158.609375 121.296875 158.617188 122.519531 158.636719 123.773438 L 158.664062 125.679688 C 158.664062 126.324219 158.683594 126.976562 158.65625 127.667969 C 157.75 126.648438 157.066406 125.480469 156.503906 124.265625 C 155.945312 123.050781 155.542969 121.761719 155.253906 120.445312 C 155.113281 119.789062 155.011719 119.128906 154.9375 118.453125 C 154.859375 117.78125 154.8125 117.117188 154.824219 116.445312 C 154.824219 116.109375 154.824219 115.773438 154.832031 115.4375 C 154.832031 115.101562 154.859375 114.761719 154.878906 114.425781 L 154.945312 113.417969 C 154.972656 113.082031 155.019531 112.746094 155.058594 112.410156 C 155.199219 111.0625 155.46875 109.734375 155.765625 108.429688 C 155.851562 108.101562 155.945312 107.773438 156.027344 107.445312 C 156.121094 107.121094 156.195312 106.792969 156.308594 106.476562 C 156.523438 105.828125 156.710938 105.183594 156.964844 104.558594 L 157.328125 103.613281 L 157.738281 102.679688 L 157.945312 102.214844 C 158.011719 102.054688 158.09375 101.90625 158.167969 101.753906 L 158.625 100.847656 C 158.703125 100.699219 158.785156 100.550781 158.871094 100.402344 L 159.121094 99.960938 C 159.289062 99.671875 159.449219 99.363281 159.625 99.082031 L 160.167969 98.222656 C 160.261719 98.082031 160.347656 97.933594 160.441406 97.792969 L 160.730469 97.371094 C 163.792969 92.90625 167.960938 89.175781 172.792969 86.664062 L 173.699219 86.195312 C 174.007812 86.046875 174.316406 85.917969 174.625 85.765625 C 175.242188 85.46875 175.878906 85.234375 176.503906 84.980469 C 176.820312 84.851562 177.140625 84.75 177.464844 84.636719 C 177.785156 84.523438 178.109375 84.410156 178.4375 84.308594 L 179.417969 84.027344 L 179.914062 83.886719 C 180.082031 83.84375 180.242188 83.8125 180.410156 83.765625 C 183.054688 83.132812 185.773438 82.8125 188.492188 82.804688 C 193.921875 82.84375 199.359375 84.179688 204.125 86.746094 C 206.519531 88.019531 208.742188 89.597656 210.75 91.402344 C 212.769531 93.195312 214.535156 95.261719 216.058594 97.484375 C 217.582031 99.710938 218.816406 102.121094 219.75 104.632812 C 220.003906 105.261719 220.191406 105.90625 220.394531 106.539062 C 220.507812 106.859375 220.582031 107.183594 220.667969 107.511719 C 220.75 107.839844 220.84375 108.15625 220.917969 108.484375 C 221.207031 109.792969 221.46875 111.109375 221.601562 112.4375 C 221.636719 112.773438 221.675781 113.101562 221.703125 113.4375 L 221.761719 114.4375 C 221.816406 115.101562 221.796875 115.773438 221.804688 116.4375 C 221.816406 117.101562 221.777344 117.773438 221.742188 118.4375 C 221.703125 119.097656 221.628906 119.761719 221.527344 120.425781 C 221.3125 121.742188 220.957031 123.035156 220.421875 124.257812 C 220.160156 124.875 219.851562 125.464844 219.5 126.03125 C 219.132812 126.632812 218.742188 127.171875 218.265625 127.679688 Z M 218.265625 127.679688 "
            fill-opacity="1" fill-rule="nonzero" />
    </g>
    <path fill="#a2751d"
        d="M 187.503906 216.875 C 174.71875 216.875 161.933594 215.9375 149.234375 214.058594 L 146.570312 213.667969 L 147.617188 211.191406 C 151.972656 200.914062 153.226562 190.503906 151.339844 180.25 L 155.429688 179.503906 C 157.308594 189.734375 156.308594 200.089844 152.449219 210.324219 C 175.71875 213.519531 199.277344 213.519531 222.542969 210.324219 C 218.683594 200.089844 217.683594 189.734375 219.5625 179.503906 L 223.65625 180.25 C 221.769531 190.503906 223.019531 200.914062 227.375 211.191406 L 228.421875 213.667969 L 225.757812 214.058594 C 213.070312 215.929688 200.285156 216.875 187.503906 216.875 Z M 187.503906 216.875 "
        fill-opacity="1" fill-rule="nonzero" />
    <path fill="#a2751d"
        d="M 151.710938 201.699219 C 165.328125 204.398438 179.230469 206.023438 193.25 206.480469 C 179.289062 207.769531 165.140625 207.910156 151.011719 206.910156 Z M 151.710938 201.699219 "
        fill-opacity="1" fill-rule="nonzero" />
    <path fill="#a2751d"
        d="M 170.578125 144.574219 L 170.625 144.789062 C 171.726562 149.515625 168.851562 154.328125 164.132812 155.449219 C 161.757812 156.011719 159.382812 155.554688 157.46875 154.355469 C 155.5625 153.171875 154.105469 151.253906 153.550781 148.890625 L 153.46875 148.542969 L 150.570312 133.078125 C 150.414062 132.257812 150.9375 131.453125 151.757812 131.265625 C 152.570312 131.078125 153.394531 131.566406 153.617188 132.367188 L 157.570312 146.542969 C 157.71875 147.097656 158.28125 147.433594 158.84375 147.300781 C 159.402344 147.171875 159.757812 146.628906 159.644531 146.066406 L 156.933594 131.601562 C 156.777344 130.78125 157.300781 129.976562 158.121094 129.789062 C 158.933594 129.601562 159.757812 130.089844 159.980469 130.890625 L 163.933594 145.066406 C 164.085938 145.621094 164.644531 145.957031 165.207031 145.824219 C 165.765625 145.695312 166.121094 145.152344 166.007812 144.589844 L 163.300781 130.125 C 163.140625 129.304688 163.664062 128.5 164.484375 128.3125 C 165.300781 128.125 166.121094 128.613281 166.34375 129.414062 Z M 170.578125 144.574219 "
        fill-opacity="1" fill-rule="nonzero" />
    <path fill="#a2751d"
        d="M 218.164062 128.441406 C 218.824219 128.625 219.453125 128.890625 220.054688 129.242188 C 220.652344 129.59375 221.210938 130.023438 221.726562 130.53125 C 222.242188 131.039062 222.707031 131.613281 223.121094 132.257812 C 223.53125 132.902344 223.886719 133.601562 224.179688 134.359375 C 224.472656 135.113281 224.699219 135.914062 224.863281 136.75 C 225.027344 137.589844 225.121094 138.457031 225.148438 139.34375 C 225.175781 140.234375 225.132812 141.132812 225.023438 142.039062 C 224.910156 142.945312 224.734375 143.84375 224.488281 144.730469 C 224.246094 145.617188 223.9375 146.480469 223.570312 147.316406 C 223.203125 148.152344 222.78125 148.945312 222.300781 149.695312 C 221.824219 150.445312 221.300781 151.140625 220.730469 151.777344 C 220.160156 152.414062 219.554688 152.984375 218.917969 153.484375 C 218.277344 153.984375 217.617188 154.40625 216.929688 154.746094 C 216.246094 155.089844 215.554688 155.347656 214.851562 155.519531 C 214.148438 155.691406 213.449219 155.773438 212.753906 155.769531 C 212.058594 155.765625 211.382812 155.671875 210.722656 155.492188 C 210.0625 155.308594 209.433594 155.042969 208.835938 154.691406 C 208.234375 154.339844 207.675781 153.910156 207.160156 153.402344 C 206.644531 152.894531 206.179688 152.320312 205.769531 151.675781 C 205.355469 151.03125 205.003906 150.332031 204.710938 149.574219 C 204.414062 148.820312 204.1875 148.019531 204.023438 147.183594 C 203.859375 146.34375 203.765625 145.476562 203.738281 144.589844 C 203.710938 143.699219 203.753906 142.800781 203.863281 141.894531 C 203.976562 140.988281 204.152344 140.089844 204.398438 139.203125 C 204.640625 138.316406 204.949219 137.453125 205.316406 136.617188 C 205.683594 135.78125 206.109375 134.988281 206.585938 134.238281 C 207.066406 133.488281 207.589844 132.792969 208.160156 132.15625 C 208.726562 131.515625 209.332031 130.949219 209.972656 130.449219 C 210.609375 129.949219 211.273438 129.527344 211.957031 129.1875 C 212.640625 128.84375 213.335938 128.585938 214.039062 128.414062 C 214.742188 128.242188 215.4375 128.160156 216.132812 128.164062 C 216.828125 128.167969 217.503906 128.261719 218.164062 128.441406 Z M 218.164062 128.441406 "
        fill-opacity="1" fill-rule="nonzero" />
</svg>